{"asset":{"version":"2.0","generator":"Blockbench 4.12.5 glTF exporter"},"scenes":[{"nodes":[7],"name":"blockbench_export"}],"scene":0,"nodes":[{"name":"Pedra","mesh":0},{"rotation":[-0.003599925433201797,0.9989024728346982,0.04114733598753954,-0.022085901447051495],"translation":[0.9375,0.03125,-0.4375],"name":"Pedra","mesh":1},{"rotation":[0.012119700761946831,0.555438022348935,0.018138414002111046,0.8312717450509388],"translation":[0.1875,0.03125,-0.875],"name":"Pedra","mesh":2},{"rotation":[-0.025390011354061433,0.9985862291368934,0.0416193454367927,-0.021183021196545256],"translation":[0.9375,-0.03125,0.1875],"name":"Pedra","mesh":3},{"rotation":[-0.025390011354061433,0.9985862291368934,0.0416193454367927,-0.021183021196545256],"translation":[-0.5625,-0.03125,-0.75],"name":"Pedra","mesh":4},{"rotation":[-0.039384345784786515,0.9144669872878453,0.028734924712808262,-0.4017129653988598],"translation":[0.6875,-0.03125,0.5625],"name":"Pedra","mesh":5},{"name":"root","children":[0,1,2,3,4,5]},{"children":[6]}],"bufferViews":[{"buffer":0,"byteOffset":0,"byteLength":2976,"target":34962,"byteStride":12},{"buffer":0,"byteOffset":2976,"byteLength":2976,"target":34962,"byteStride":12},{"buffer":0,"byteOffset":5952,"byteLength":1984,"target":34962,"byteStride":8},{"buffer":0,"byteOffset":7936,"byteLength":744,"target":34963},{"buffer":0,"byteOffset":8680,"byteLength":1920,"target":34962,"byteStride":12},{"buffer":0,"byteOffset":10600,"byteLength":1920,"target":34962,"byteStride":12},{"buffer":0,"byteOffset":12520,"byteLength":1280,"target":34962,"byteStride":8},{"buffer":0,"byteOffset":13800,"byteLength":480,"target":34963},{"buffer":0,"byteOffset":14280,"byteLength":1920,"target":34962,"byteStride":12},{"buffer":0,"byteOffset":16200,"byteLength":1920,"target":34962,"byteStride":12},{"buffer":0,"byteOffset":18120,"byteLength":1280,"target":34962,"byteStride":8},{"buffer":0,"byteOffset":19400,"byteLength":480,"target":34963},{"buffer":0,"byteOffset":19880,"byteLength":1920,"target":34962,"byteStride":12},{"buffer":0,"byteOffset":21800,"byteLength":1920,"target":34962,"byteStride":12},{"buffer":0,"byteOffset":23720,"byteLength":1280,"target":34962,"byteStride":8},{"buffer":0,"byteOffset":25000,"byteLength":480,"target":34963},{"buffer":0,"byteOffset":25480,"byteLength":1920,"target":34962,"byteStride":12},{"buffer":0,"byteOffset":27400,"byteLength":1920,"target":34962,"byteStride":12},{"buffer":0,"byteOffset":29320,"byteLength":1280,"target":34962,"byteStride":8},{"buffer":0,"byteOffset":30600,"byteLength":480,"target":34963},{"buffer":0,"byteOffset":31080,"byteLength":1920,"target":34962,"byteStride":12},{"buffer":0,"byteOffset":33000,"byteLength":1920,"target":34962,"byteStride":12},{"buffer":0,"byteOffset":34920,"byteLength":1280,"target":34962,"byteStride":8},{"buffer":0,"byteOffset":36200,"byteLength":480,"target":34963}],"buffers":[{"byteLength":36680,"uri":"data:application/octet-stream;base64,"}],"accessors":[{"bufferView":0,"componentType":5126,"count":248,"max":[0.625,1.0625,0.5625],"min":[-0.5625,0,-0.5],"type":"VEC3"},{"bufferView":1,"componentType":5126,"count":248,"max":[0.9429903626441956,1,0.9961298704147339],"min":[-1,-1,-1],"type":"VEC3"},{"bufferView":2,"componentType":5126,"count":248,"max":[0.78125,0.546875],"min":[0,0],"type":"VEC2"},{"bufferView":3,"componentType":5123,"count":372,"max":[247],"min":[0],"type":"SCALAR"},{"bufferView":4,"componentType":5126,"count":160,"max":[0.45234718918800354,0.750639796257019,0.3596164882183075],"min":[-0.43581071496009827,-0.06186022609472275,-0.3903835117816925],"type":"VEC3"},{"bufferView":5,"componentType":5126,"count":160,"max":[0.9904657006263733,0.9617649912834167,0.948817789554596],"min":[-0.9080372452735901,-1,-1],"type":"VEC3"},{"bufferView":6,"componentType":5126,"count":160,"max":[0.78125,0.546875],"min":[0,0],"type":"VEC2"},{"bufferView":7,"componentType":5123,"count":240,"max":[159],"min":[0],"type":"SCALAR"},{"bufferView":8,"componentType":5126,"count":160,"max":[0.4424792528152466,0.7501784563064575,0.375],"min":[-0.44567862153053284,-0.06232153996825218,-0.375],"type":"VEC3"},{"bufferView":9,"componentType":5126,"count":160,"max":[0.9904657006263733,0.9617649912834167,0.948817789554596],"min":[-0.9080372452735901,-1,-1],"type":"VEC3"},{"bufferView":10,"componentType":5126,"count":160,"max":[0.78125,0.546875],"min":[0,0],"type":"VEC2"},{"bufferView":11,"componentType":5123,"count":240,"max":[159],"min":[0],"type":"SCALAR"},{"bufferView":12,"componentType":5126,"count":160,"max":[0.1420995444059372,0.18899279832839966,0.15160515904426575],"min":[-0.12105834484100342,0.0014928048476576805,-0.22339484095573425],"type":"VEC3"},{"bufferView":13,"componentType":5126,"count":160,"max":[0.9926854968070984,0.9786191582679749,0.87187260389328],"min":[-0.9622622728347778,-1,-1],"type":"VEC3"},{"bufferView":14,"componentType":5126,"count":160,"max":[0.78125,0.546875],"min":[0,0],"type":"VEC2"},{"bufferView":15,"componentType":5123,"count":240,"max":[159],"min":[0],"type":"SCALAR"},{"bufferView":16,"componentType":5126,"count":160,"max":[0.1420995444059372,0.18899279832839966,0.15160515904426575],"min":[-0.12105834484100342,0.0014928048476576805,-0.22339484095573425],"type":"VEC3"},{"bufferView":17,"componentType":5126,"count":160,"max":[0.9926854968070984,0.9786191582679749,0.87187260389328],"min":[-0.9622622728347778,-1,-1],"type":"VEC3"},{"bufferView":18,"componentType":5126,"count":160,"max":[0.78125,0.546875],"min":[0,0],"type":"VEC2"},{"bufferView":19,"componentType":5123,"count":240,"max":[159],"min":[0],"type":"SCALAR"},{"bufferView":20,"componentType":5126,"count":160,"max":[0.1420995444059372,0.18899279832839966,0.15160515904426575],"min":[-0.12105834484100342,0.0014928048476576805,-0.22339484095573425],"type":"VEC3"},{"bufferView":21,"componentType":5126,"count":160,"max":[0.9926854968070984,0.9786191582679749,0.87187260389328],"min":[-0.9622622728347778,-1,-1],"type":"VEC3"},{"bufferView":22,"componentType":5126,"count":160,"max":[0.78125,0.546875],"min":[0,0],"type":"VEC2"},{"bufferView":23,"componentType":5123,"count":240,"max":[159],"min":[0],"type":"SCALAR"}],"materials":[{"pbrMetallicRoughness":{"metallicFactor":0,"roughnessFactor":1,"baseColorTexture":{"index":0}},"alphaMode":"MASK","alphaCutoff":0.05,"doubleSided":true}],"textures":[{"sampler":0,"source":0,"name":"stone"}],"samplers":[{"magFilter":9728,"minFilter":9728,"wrapS":33071,"wrapT":33071}],"images":[{"mimeType":"image/png","uri":"data:image/png;base64,"}],"meshes":[{"primitives":[{"mode":4,"attributes":{"POSITION":0,"NORMAL":1,"TEXCOORD_0":2},"indices":3,"material":0}]},{"primitives":[{"mode":4,"attributes":{"POSITION":4,"NORMAL":5,"TEXCOORD_0":6},"indices":7,"material":0}]},{"primitives":[{"mode":4,"attributes":{"POSITION":8,"NORMAL":9,"TEXCOORD_0":10},"indices":11,"material":0}]},{"primitives":[{"mode":4,"attributes":{"POSITION":12,"NORMAL":13,"TEXCOORD_0":14},"indices":15,"material":0}]},{"primitives":[{"mode":4,"attributes":{"POSITION":16,"NORMAL":17,"TEXCOORD_0":18},"indices":19,"material":0}]},{"primitives":[{"mode":4,"attributes":{"POSITION":20,"NORMAL":21,"TEXCOORD_0":22},"indices":23,"material":0}]}]}